<?xml version="1.0" standalone="no"?>
<!DOCTYPE svg PUBLIC "-//W3C//DTD SVG 20010904//EN"
 "http://www.w3.org/TR/2001/REC-SVG-20010904/DTD/svg10.dtd">
<svg version="1.0" xmlns="http://www.w3.org/2000/svg"
 width="5000.000000pt" height="5000.000000pt" viewBox="0 0 5000.000000 5000.000000"
 preserveAspectRatio="xMidYMid meet">

<g transform="translate(0.000000,5000.000000) scale(0.100000,-0.100000)"
fill="#000000" stroke="none">
<path d="M25700 37279 c-167 -15 -354 -70 -523 -155 -77 -39 -247 -145 -247
-155 0 -3 60 -32 133 -64 713 -314 1207 -674 1477 -1078 69 -104 154 -283 182
-384 13 -46 26 -83 30 -83 3 0 26 24 51 53 124 147 214 322 259 504 33 132 31
341 -5 475 -51 194 -151 364 -301 513 -221 219 -494 344 -821 375 -60 5 -117
9 -125 9 -8 -1 -58 -6 -110 -10z"/>
<path d="M23091 37176 c-136 -468 -74 -966 175 -1408 170 -301 437 -613 724
-844 447 -360 785 -723 1064 -1144 138 -207 184 -287 279 -476 220 -439 368
-942 418 -1422 11 -101 15 -119 27 -110 26 22 188 273 246 381 229 427 356
929 356 1412 0 560 -196 1233 -485 1665 -95 141 -179 242 -309 368 -238 230
-460 371 -1065 676 -223 113 -469 242 -546 287 -300 175 -514 337 -726 549
l-137 137 -21 -71z"/>
<path d="M21292 36948 c-213 -516 -202 -1104 33 -1798 145 -427 546 -1046
1030 -1590 423 -475 1120 -1097 1464 -1307 171 -103 254 -160 396 -267 146
-111 367 -325 455 -440 36 -47 68 -85 71 -85 21 -2 53 332 44 469 -49 782
-469 1577 -1445 2730 -191 225 -378 437 -830 940 -622 692 -874 990 -1090
1290 -45 63 -86 119 -90 123 -4 5 -21 -24 -38 -65z"/>
<path d="M28970 36823 c-358 -501 -787 -950 -1320 -1378 -176 -141 -238 -201
-314 -305 -106 -144 -173 -288 -221 -472 -21 -81 -28 -135 -32 -254 -3 -84 -2
-178 2 -209 l7 -58 151 6 c174 7 294 25 455 68 613 162 1123 626 1347 1223 89
241 129 458 129 716 0 190 -11 298 -50 460 -23 99 -82 290 -89 290 -2 0 -31
-39 -65 -87z"/>
<path d="M20360 36508 c-374 -166 -613 -383 -773 -703 -179 -358 -215 -804
-102 -1250 184 -728 719 -1339 1415 -1615 338 -134 743 -197 1115 -173 91 6
169 14 173 17 4 4 -1 12 -11 17 -10 6 -64 47 -120 91 -1018 807 -1550 1904
-1647 3393 -5 83 -10 169 -10 193 0 45 -2 46 -40 30z"/>
<path d="M30357 36170 c-3 -8 -17 -67 -32 -130 -60 -259 -160 -525 -294 -785
-107 -210 -187 -337 -316 -510 -592 -789 -1458 -1289 -2430 -1401 l-150 -18
90 -43 c266 -126 617 -221 934 -253 132 -13 399 -13 532 0 546 54 1048 251
1479 581 273 208 501 608 580 1015 96 497 -11 1017 -291 1424 -87 126 -97 138
-102 120z"/>
<path d="M16395 34319 c-542 -73 -936 -458 -1170 -1139 -137 -401 -199 -823
-198 -1355 1 -681 118 -1314 344 -1868 82 -200 268 -537 297 -537 17 0 957
450 960 459 2 6 -17 70 -43 143 -214 615 -370 1259 -432 1778 -23 199 -23 576
0 715 42 242 106 391 219 511 178 187 436 230 801 134 252 -66 619 -245 992
-483 122 -77 407 -274 472 -325 l23 -17 -31 -100 c-17 -55 -60 -176 -94 -270
-221 -594 -513 -1091 -885 -1505 l-64 -73 44 23 c98 50 476 282 669 411 801
533 1431 1132 1837 1748 l48 73 -164 162 c-403 394 -818 690 -1335 951 -495
250 -1007 419 -1548 510 -306 51 -604 73 -742 54z"/>
<path d="M33245 34274 c-22 -3 -114 -14 -205 -25 -1049 -130 -2049 -572 -2857
-1265 -156 -133 -403 -372 -403 -390 0 -7 25 -50 57 -96 423 -623 1038 -1205
1817 -1722 182 -121 507 -320 661 -405 l60 -33 -26 28 c-169 187 -270 316
-391 494 -169 249 -329 547 -454 849 -76 180 -207 559 -200 577 6 16 205 158
416 296 590 388 1051 578 1399 578 206 -1 328 -46 452 -170 82 -81 131 -160
173 -278 126 -354 101 -955 -69 -1692 -70 -302 -207 -775 -310 -1065 l-44
-125 47 -24 c26 -13 245 -117 486 -230 408 -192 439 -205 452 -189 40 52 154
251 209 366 217 456 358 1032 406 1656 15 204 7 740 -15 921 -80 669 -269
1176 -565 1517 -187 215 -410 349 -683 409 -71 16 -328 27 -413 18z"/>
<path d="M26645 32146 l-730 -332 -453 -580 -453 -579 -57 -7 c-31 -3 -60 -3
-63 0 -3 4 -205 263 -449 575 -244 313 -452 575 -464 582 -35 23 -1459 665
-1464 661 -2 -3 54 -80 125 -173 313 -406 713 -933 713 -939 0 -3 -8 -3 -17 1
-10 4 -416 141 -903 305 l-885 299 -568 -38 c-312 -21 -569 -40 -572 -42 -2
-2 261 -225 585 -494 324 -269 586 -493 582 -496 -4 -4 -151 -28 -327 -53
-176 -26 -330 -51 -342 -54 -20 -7 -10 -29 181 -378 l202 -372 -50 -10 c-28
-5 -440 -81 -916 -167 -476 -87 -870 -163 -876 -169 -16 -15 -665 -1268 -660
-1273 2 -2 165 39 361 92 196 53 358 95 360 93 2 -2 -225 -360 -505 -797 -464
-724 -509 -798 -515 -845 -3 -28 -25 -319 -50 -646 -24 -327 -47 -614 -50
-637 -2 -24 -1 -43 3 -43 5 0 120 70 256 155 137 86 250 154 252 153 1 -2 95
-503 208 -1113 114 -611 209 -1122 212 -1137 4 -19 204 -224 680 -697 l674
-669 173 176 c95 98 260 267 366 377 313 323 303 313 292 285 -5 -14 -227
-547 -494 -1185 -266 -638 -499 -1195 -517 -1238 -18 -43 -31 -79 -29 -81 2
-1 465 -85 1029 -186 564 -101 1036 -187 1050 -191 24 -7 24 -7 -5 -8 -47 -1
-2120 -163 -2122 -165 -6 -6 207 -452 219 -458 7 -4 593 -71 1302 -148 709
-77 1291 -141 1292 -143 2 -1 -526 -53 -1172 -114 -647 -61 -1178 -114 -1181
-117 -3 -2 48 -106 113 -230 85 -161 125 -226 139 -230 11 -2 464 -57 1007
-122 543 -65 986 -119 985 -121 -2 -1 -302 -45 -667 -97 -366 -53 -672 -97
-680 -99 -16 -2 699 -427 720 -427 7 0 482 145 1054 321 573 177 1049 324
1059 326 16 5 17 49 17 742 l0 737 -1147 643 c-632 354 -1152 647 -1156 651
-5 4 109 484 254 1066 144 583 267 1080 273 1106 6 25 13 49 17 52 3 3 22
-290 43 -652 21 -361 40 -700 43 -753 l6 -97 536 -6 c1061 -12 3254 -5 3407
10 l51 5 6 92 c3 51 23 390 43 754 21 365 41 657 45 650 4 -6 129 -507 279
-1111 249 -1007 270 -1101 255 -1112 -9 -7 -529 -300 -1156 -651 l-1139 -638
0 -737 0 -737 113 -35 c731 -227 2005 -618 2017 -618 13 -1 702 401 722 420 4
4 -291 50 -655 101 -364 52 -667 97 -674 100 -7 4 438 60 988 126 l1001 120
119 223 c65 123 119 228 119 233 0 5 -8 9 -19 9 -10 0 -85 7 -167 15 -383 38
-2138 205 -2157 205 -11 0 -18 2 -16 4 2 2 589 68 1304 146 715 79 1301 145
1303 149 52 101 207 448 203 452 -3 4 -485 44 -1071 89 -586 45 -1067 84
-1069 86 -2 2 0 4 6 4 19 0 2087 370 2091 374 2 2 -231 567 -519 1255 -287
689 -520 1253 -518 1255 2 2 189 -187 414 -420 226 -233 412 -424 415 -424 3
0 308 303 677 673 l673 672 210 1130 c116 622 211 1133 213 1138 1 4 117 -64
257 -152 140 -88 256 -159 256 -158 1 1 -22 311 -51 689 l-53 687 -511 798
c-280 438 -509 798 -507 800 1 1 163 -41 360 -93 196 -53 359 -94 361 -92 9 9
-654 1273 -672 1280 -10 4 -421 80 -913 169 -492 89 -899 165 -903 169 -5 4
82 173 192 376 110 202 199 369 198 370 -1 1 -157 25 -347 54 -190 29 -347 54
-349 56 -2 2 -2 6 0 7 2 2 269 224 594 493 l590 489 -60 6 c-33 4 -292 22
-575 40 l-514 34 -900 -303 c-495 -166 -901 -300 -903 -298 -2 1 186 251 417
555 231 303 420 554 420 556 0 3 -3 5 -7 4 -5 -1 -336 -151 -738 -333z m2814
-4782 c9 -57 14 -183 15 -349 1 -288 -8 -365 -66 -544 -56 -177 -129 -300
-251 -428 -189 -197 -436 -310 -812 -369 -86 -14 -176 -18 -408 -19 l-297 -1
-76 -74 c-233 -230 -363 -551 -392 -968 l-7 -107 -24 50 c-35 78 -89 244 -113
352 -19 83 -22 129 -22 298 -1 177 2 211 23 295 104 419 372 781 836 1130 257
193 483 329 860 516 247 123 691 317 710 311 6 -2 16 -44 24 -93z m-8866 37
c851 -343 1501 -750 1879 -1176 388 -436 513 -916 374 -1430 -28 -105 -97
-285 -108 -285 -4 0 -8 25 -8 54 0 82 -27 267 -55 383 -63 261 -178 470 -347
633 l-67 65 -283 1 c-168 0 -320 5 -373 12 -386 54 -636 158 -837 350 -163
155 -266 356 -319 619 -31 156 -37 447 -14 654 16 149 20 169 32 169 3 0 60
-22 126 -49z"/>
<path d="M18285 30009 c-124 -151 -343 -298 -602 -405 -48 -20 -221 -81 -383
-134 -1021 -339 -1797 -742 -2425 -1261 -55 -46 -181 -164 -281 -264 -171
-171 -185 -187 -264 -320 -327 -547 -532 -1130 -591 -1675 -15 -145 -15 -482
0 -620 32 -290 107 -593 213 -859 46 -119 121 -281 126 -276 2 2 28 73 56 157
168 492 417 1001 689 1408 243 363 468 631 813 970 324 318 597 543 1184 978
676 501 914 700 1116 936 285 330 415 638 431 1017 5 136 -8 343 -26 391 -5
14 -16 6 -56 -43z"/>
<path d="M31657 30028 c-19 -76 -29 -249 -24 -383 21 -526 265 -934 846 -1419
85 -71 366 -287 625 -481 795 -593 1068 -824 1448 -1223 591 -620 1034 -1361
1322 -2211 24 -73 47 -135 49 -137 8 -8 130 283 178 425 121 356 172 653 172
1016 -1 281 -27 498 -93 775 -94 387 -278 827 -507 1210 -69 115 -100 156
-212 272 -597 621 -1416 1104 -2581 1520 -90 32 -218 75 -285 94 -397 119
-716 305 -897 522 -34 41 -36 42 -41 20z"/>
<path d="M17315 27140 c-370 -114 -766 -326 -1073 -573 -542 -436 -998 -1021
-1356 -1737 -641 -1285 -843 -2749 -531 -3855 145 -515 369 -904 711 -1236 99
-96 289 -249 309 -249 4 0 5 95 2 211 -21 776 80 1538 308 2319 163 558 385
1108 775 1920 73 151 188 392 257 535 313 650 475 1048 589 1444 111 387 164
779 149 1104 -8 172 3 162 -140 117z"/>
<path d="M32545 26998 c-24 -537 113 -1136 430 -1878 89 -208 204 -455 435
-935 267 -553 375 -787 505 -1090 390 -913 599 -1697 680 -2548 22 -229 35
-662 27 -890 -4 -108 -5 -197 -3 -197 3 0 56 39 119 87 580 440 926 1134 1029
2063 23 216 23 700 0 940 -52 521 -167 1034 -342 1523 -553 1552 -1599 2712
-2748 3046 -58 17 -109 31 -115 31 -6 0 -13 -63 -17 -152z"/>
<path d="M32893 23698 c-44 -53 -212 -465 -278 -683 -144 -476 -199 -898 -199
-1535 -1 -515 18 -765 129 -1780 104 -946 127 -1218 146 -1717 20 -541 -11
-1073 -92 -1562 -16 -101 -28 -185 -26 -188 7 -7 106 36 209 89 189 99 402
284 550 478 360 474 601 1221 712 2210 68 599 66 953 -5 1610 -136 1253 -474
2246 -995 2920 -122 158 -138 174 -151 158z"/>
<path d="M17067 23629 c-611 -735 -984 -1857 -1102 -3309 -40 -503 -40 -628 1
-1095 137 -1554 572 -2540 1285 -2914 102 -54 199 -95 206 -87 3 2 -7 73 -21
158 -74 450 -97 754 -97 1278 0 571 25 919 136 1929 122 1102 139 1321 139
1861 1 431 -7 570 -50 868 -56 394 -148 738 -286 1066 -44 107 -144 316 -151
316 -1 0 -28 -32 -60 -71z"/>
<path d="M18191 22755 c36 -179 75 -449 96 -675 22 -234 25 -1019 5 -1290 -33
-445 -65 -761 -157 -1530 -95 -797 -124 -1146 -132 -1590 -10 -528 26 -918
122 -1315 183 -765 584 -1391 1230 -1920 320 -262 684 -492 1125 -709 187 -92
483 -226 500 -226 6 0 -28 51 -74 113 -191 257 -389 583 -552 907 -456 913
-708 1904 -801 3156 -22 298 -24 1139 -4 1619 40 952 -83 1766 -362 2398 -213
483 -540 883 -941 1151 -39 25 -72 46 -76 46 -3 0 6 -61 21 -135z"/>
<path d="M31728 22788 c-272 -187 -512 -433 -690 -704 -329 -501 -522 -1141
-588 -1949 -21 -250 -23 -719 -6 -1070 110 -2249 -348 -4109 -1346 -5476 -47
-64 -88 -121 -92 -128 -25 -39 613 264 889 424 917 530 1506 1158 1815 1935
222 559 312 1240 270 2045 -21 398 -45 650 -140 1460 -139 1182 -155 1390
-155 2050 0 417 3 542 18 685 23 224 60 481 92 639 14 68 25 128 25 132 0 17
-17 9 -92 -43z"/>
<path d="M20596 17823 c-7 -37 -32 -237 -48 -393 -21 -198 -17 -847 5 -1035
86 -716 316 -1294 713 -1790 49 -60 167 -188 264 -284 472 -468 864 -770 1248
-964 142 -72 204 -97 472 -193 567 -203 1008 -442 1266 -686 l77 -73 -6 180
c-26 776 -295 1408 -858 2012 -209 223 -441 432 -909 818 -146 120 -332 275
-415 344 -802 670 -1322 1261 -1720 1951 -43 74 -79 136 -81 138 -1 2 -5 -9
-8 -25z"/>
<path d="M23766 17455 c-648 -217 -1180 -396 -1183 -399 -5 -5 251 -1497 263
-1534 3 -10 18 -4 52 21 245 177 634 437 644 431 25 -16 326 -250 498 -387
322 -259 635 -527 814 -698 l93 -88 24 25 c40 44 295 273 458 413 216 185 554
457 838 675 l101 78 338 -236 c186 -130 341 -232 345 -228 5 6 256 1422 267
1507 l3 30 -688 229 c-612 204 -1687 558 -1688 555 0 0 -530 -178 -1179 -394z"/>
<path d="M29303 17712 c-379 -664 -861 -1225 -1603 -1863 -85 -74 -306 -258
-489 -409 -540 -444 -778 -658 -996 -897 -546 -596 -805 -1214 -832 -1988 l-6
-169 80 72 c290 264 758 510 1382 727 257 89 441 181 685 342 295 194 592 442
936 784 261 258 449 517 608 835 345 690 450 1500 326 2524 -9 74 -19 138 -23
142 -4 5 -35 -40 -68 -100z"/>
</g>
</svg>
